<?xml version="1.0" encoding="UTF-8" standalone="no"?>
<!DOCTYPE svg PUBLIC "-//W3C//DTD SVG 1.1//EN" "http://www.w3.org/Graphics/SVG/1.1/DTD/svg11.dtd">
<svg xmlns="http://www.w3.org/2000/svg" version="1.1" viewBox="0.00 0.00 1174.00 455.00">
<g stroke-width="2.00" fill="none" stroke-linecap="butt">
<path stroke="#805431" vector-effect="non-scaling-stroke" d="
  M 411.43 114.78
  L 353.80 149.22"
/>
<path stroke="#805431" vector-effect="non-scaling-stroke" d="
  M 353.84 208.71
  L 412.36 172.67"
/>
<path stroke="#041a28" vector-effect="non-scaling-stroke" d="
  M 412.34 178.27
  Q 411.41 179.22 411.40 180.13
  C 411.30 191.73 410.90 205.14 411.17 216.63
  Q 411.60 235.52 411.49 242.48
  Q 411.31 253.86 411.19 284.50
  C 411.13 303.00 411.21 316.24 410.88 334.06
  A 1.88 1.82 -30.7 0 1 410.65 334.91
  Q 409.41 337.14 407.33 337.69
  A 0.61 0.56 20.8 0 0 407.18 337.75
  L 402.45 340.41
  A 0.55 0.31 -61.0 0 0 402.37 340.46
  Q 401.19 341.43 399.79 342.72
  A 3.89 3.81 -79.3 0 1 398.93 343.32
  Q 393.76 345.95 391.72 347.25
  Q 388.85 349.08 384.87 352.51"
/>
<path stroke="#041a28" vector-effect="non-scaling-stroke" d="
  M 502.96 187.16
  Q 511.42 194.87 516.83 203.58
  Q 518.33 206.00 518.62 207.24
  Q 519.09 209.30 519.95 211.12
  Q 520.82 212.98 521.51 216.99
  Q 523.23 227.04 521.27 236.71
  A 3.99 3.61 66.1 0 1 521.00 237.53
  Q 519.33 241.21 519.81 244.73"
/>
<path stroke="#041a28" vector-effect="non-scaling-stroke" d="
  M 555.89 269.83
  Q 555.26 259.60 555.00 249.40
  C 554.92 246.35 555.63 243.80 555.39 241.07
  A 1.30 1.28 72.2 0 1 556.00 239.87
  Q 557.50 238.95 558.70 238.79
  Q 560.70 238.53 572.06 238.21
  Q 581.66 237.95 585.30 236.82
  Q 595.32 233.73 600.66 223.43
  Q 601.79 221.24 602.11 218.47
  Q 602.78 212.68 602.90 209.09
  A 8.41 8.29 -50.7 0 0 602.70 206.94
  C 601.99 203.82 601.68 200.70 600.26 198.18
  C 596.97 192.35 592.68 187.58 586.22 185.37
  Q 580.05 183.26 574.73 183.11
  Q 568.97 182.96 539.80 183.05
  A 1.32 1.31 -88.1 0 0 538.50 184.27
  Q 537.95 191.86 538.37 200.57
  C 538.60 205.10 538.48 212.49 538.41 218.26
  C 538.24 233.11 538.43 247.73 537.12 262.56"
/>
<path stroke="#041a28" vector-effect="non-scaling-stroke" d="
  M 718.53 242.04
  L 717.76 242.58
  A 0.72 0.71 -23.8 0 1 716.65 242.15
  L 714.23 231.26
  A 5.21 3.28 88.3 0 0 714.04 230.58
  L 713.20 228.21
  A 1.11 0.89 40.9 0 1 713.17 228.07
  Q 712.49 223.82 711.39 221.66
  A 1.96 1.83 32.8 0 1 711.17 220.78
  Q 711.14 218.44 708.75 210.70
  Q 707.42 206.40 706.21 200.66
  Q 704.50 192.63 702.32 185.43
  Q 701.67 183.29 699.63 183.17
  Q 691.22 182.68 683.03 183.69"
/>
<path stroke="#041a28" vector-effect="non-scaling-stroke" d="
  M 745.60 210.44
  Q 748.40 215.41 749.91 221.14
  Q 750.09 221.81 751.18 225.37
  Q 751.98 227.99 752.29 229.66
  Q 752.91 232.96 761.18 259.30
  Q 762.43 263.26 763.14 266.96
  A 1.34 1.34 0.0 0 0 764.39 268.04
  L 779.65 268.79
  A 1.85 1.85 0.0 0 0 781.52 267.43
  L 804.33 185.33
  A 1.71 1.71 0.0 0 0 802.68 183.16
  L 789.91 183.16
  A 2.45 2.44 -82.8 0 0 787.54 185.01
  L 780.79 211.85
  A 0.88 0.08 -84.8 0 0 780.77 211.96
  C 780.50 214.62 780.46 215.72 779.84 218.08
  Q 777.88 225.52 776.03 235.58
  Q 775.12 240.55 772.03 244.22
  A 0.51 0.51 0.0 0 1 771.17 244.10
  C 770.18 241.85 769.10 239.08 768.43 236.64
  Q 761.36 210.57 761.07 209.48
  Q 759.24 202.42 757.06 195.52
  Q 755.12 189.37 753.96 184.54
  A 1.95 1.94 83.2 0 0 752.07 183.05
  L 738.28 183.05
  A 2.57 2.57 0.0 0 0 735.74 185.24
  C 735.04 190.00 733.19 194.13 731.90 199.07
  C 730.39 204.80 729.45 207.56 728.29 212.36
  Q 726.23 220.91 721.15 238.14
  Q 720.63 239.92 719.46 242.09
  A 0.33 0.32 34.5 0 1 718.96 242.18
  Q 718.72 241.98 718.53 242.04"
/>
<path stroke="#041a28" vector-effect="non-scaling-stroke" d="
  M 745.48 210.47
  Q 745.60 210.00 745.33 209.71
  Q 745.26 209.64 744.60 209.67"
/>
<path stroke="#041a28" vector-effect="non-scaling-stroke" d="
  M 710.56 269.75
  L 708.24 266.50
  A 2.09 2.06 -66.9 0 1 707.88 265.59
  C 707.20 260.86 705.51 256.34 704.38 252.04
  Q 703.23 247.68 700.77 240.13
  C 698.13 232.02 696.21 224.14 693.32 214.69
  Q 692.43 211.79 687.48 193.77
  Q 686.81 191.34 685.54 187.89
  A 0.72 0.69 -1.2 0 0 685.05 187.44
  Q 684.71 187.34 684.68 187.09
  Q 684.63 186.65 684.44 186.48
  Q 684.21 186.28 683.81 186.46"
/>
<path stroke="#041a28" vector-effect="non-scaling-stroke" d="
  M 969.00 234.48
  Q 968.79 234.02 968.89 233.69
  Q 968.98 233.40 969.50 233.18
  Q 978.09 229.54 981.65 221.15
  C 983.61 216.55 983.56 210.22 983.09 205.36
  C 982.48 199.11 979.10 192.15 973.45 188.49
  Q 965.31 183.23 955.99 183.07
  Q 946.24 182.91 920.67 183.07
  A 1.92 1.91 -4.3 0 0 918.79 185.25
  Q 919.32 189.07 919.35 192.51
  Q 919.62 236.20 918.89 267.22
  A 1.16 1.16 0.0 0 0 920.05 268.41
  L 933.31 268.41
  A 1.71 1.71 0.0 0 0 935.02 266.70
  L 935.02 238.16
  A 1.52 1.52 0.0 0 1 936.58 236.64
  L 944.79 236.80
  A 0.76 0.54 -40.5 0 0 945.02 236.78
  Q 948.55 236.09 951.02 236.55
  A 2.16 2.12 -9.4 0 1 952.49 237.58
  C 953.63 239.54 954.35 241.96 955.47 244.13
  Q 962.17 257.15 969.31 269.80"
/>
<path stroke="#041a28" vector-effect="non-scaling-stroke" d="
  M 969.00 234.48
  Q 968.25 236.59 968.76 237.50
  Q 976.25 251.06 983.77 264.60
  C 984.81 266.48 986.21 267.30 985.42 269.83"
/>
<path stroke="#041a28" vector-effect="non-scaling-stroke" d="
  M 1040.48 198.76
  Q 1039.51 198.00 1038.67 197.86
  A 0.25 0.25 0.0 0 1 1038.71 197.36
  Q 1048.27 197.09 1059.73 197.45
  C 1061.69 197.51 1063.13 197.32 1063.07 195.06
  Q 1062.99 192.23 1063.20 184.64
  A 1.46 1.45 0.9 0 0 1061.74 183.14
  L 995.63 183.14
  A 1.73 1.73 0.0 0 0 993.90 184.87
  L 993.90 195.60
  A 1.73 1.73 0.0 0 0 995.63 197.33
  L 1019.49 197.33
  A 1.09 1.08 84.1 0 1 1020.55 198.20
  Q 1021.37 202.10 1021.39 207.25
  Q 1021.46 229.20 1021.37 266.96
  A 1.69 1.69 0.0 0 0 1023.06 268.65
  L 1035.56 268.65
  A 1.33 1.33 0.0 0 0 1036.89 267.32
  L 1036.89 200.30
  A 2.37 2.32 -29.3 0 1 1037.26 199.04
  Q 1037.94 198.00 1038.33 198.78"
/>
<path stroke="#041a28" vector-effect="non-scaling-stroke" d="
  M 1094.03 216.53
  L 1129.81 216.93
  A 0.32 0.32 0.0 0 0 1130.12 216.52
  Q 1129.83 215.53 1129.59 216.27"
/>
<path stroke="#041a28" vector-effect="non-scaling-stroke" d="
  M 1094.03 232.95
  Q 1094.09 231.50 1095.25 231.48
  Q 1113.81 231.19 1129.19 231.57
  A 1.86 1.86 0.0 0 1 1131.01 233.43
  L 1131.01 266.52
  A 2.01 2.01 0.0 0 0 1133.02 268.53
  L 1145.14 268.53
  A 1.79 1.79 0.0 0 0 1146.92 266.51
  C 1146.34 261.99 1147.09 257.44 1147.06 253.46
  Q 1146.96 240.23 1146.79 228.09
  C 1146.57 213.10 1146.86 202.56 1146.68 189.63
  Q 1146.67 189.18 1146.86 184.98
  Q 1146.95 182.85 1144.56 182.93
  Q 1138.71 183.11 1132.56 183.09
  A 1.59 1.59 0.0 0 0 1130.97 184.68
  L 1130.97 217.29
  A 0.57 0.57 0.0 0 1 1130.40 217.86
  L 1095.51 217.86
  A 2.93 2.92 0.0 0 1 1092.58 214.94
  L 1092.58 185.09
  A 2.03 2.03 0.0 0 0 1090.55 183.06
  L 1078.64 183.06
  A 1.40 1.40 0.0 0 0 1077.24 184.46
  L 1077.24 267.21
  A 1.38 1.38 0.0 0 0 1078.62 268.59
  L 1091.37 268.59
  A 1.26 1.25 0.0 0 0 1092.63 267.34
  L 1092.63 237.98
  A 2.90 2.84 -28.9 0 1 1093.10 236.41
  Q 1093.69 235.51 1093.95 234.17"
/>
<path stroke="#041a28" vector-effect="non-scaling-stroke" d="
  M 477.3249 195.4724
  A 30.35 27.46 -92.2 0 0 451.0502 226.8541
  A 30.35 27.46 -92.2 0 0 479.6551 256.1276
  A 30.35 27.46 -92.2 0 0 505.9298 224.7459
  A 30.35 27.46 -92.2 0 0 477.3249 195.4724"
/>
<path stroke="#041a28" vector-effect="non-scaling-stroke" d="
  M 666.25 201.91
  Q 667.08 201.50 668.24 199.51
  Q 670.77 195.18 672.27 191.48
  A 3.10 3.10 0.0 0 0 670.81 187.56
  Q 655.85 179.93 639.02 181.88
  C 632.26 182.67 625.27 185.70 620.91 190.96
  C 619.16 193.07 618.07 195.93 616.47 199.09
  A 2.40 2.40 0.0 0 0 616.20 200.11
  Q 616.15 201.00 615.68 205.13
  C 614.68 213.96 618.64 221.37 626.67 225.33
  Q 632.17 228.03 634.49 228.72
  Q 645.60 231.98 651.24 234.51
  C 654.94 236.17 658.57 238.69 659.40 242.58
  C 660.82 249.24 655.63 254.66 649.44 255.69
  Q 638.78 257.48 629.00 253.24
  C 626.35 252.08 623.22 249.67 621.05 248.43
  A 2.67 2.66 -61.0 0 0 617.37 249.49
  L 612.49 258.66
  A 2.13 2.13 0.0 0 0 613.20 261.45
  Q 621.00 266.61 631.69 269.09
  Q 635.02 269.86 639.43 269.87
  C 646.88 269.90 656.36 270.08 662.94 266.08
  C 668.65 262.61 672.51 259.27 674.49 252.98
  C 677.62 243.03 675.29 231.68 666.21 225.68
  C 658.25 220.42 648.19 218.23 640.33 215.15
  C 632.80 212.20 628.00 205.91 634.00 198.38
  A 2.96 2.90 -82.8 0 1 635.05 197.55
  C 643.52 193.52 652.99 194.94 661.15 199.18
  C 662.76 200.02 663.67 201.23 665.42 201.94
  A 0.98 0.97 -46.8 0 0 666.25 201.91"
/>
<path stroke="#041a28" vector-effect="non-scaling-stroke" d="
  M 882.93 231.09
  Q 885.21 228.43 884.94 226.75
  Q 884.18 222.03 883.36 216.83
  C 882.43 210.87 879.53 207.32 874.95 202.93
  C 871.29 199.42 868.43 197.10 863.52 196.07
  C 854.63 194.20 845.00 197.08 838.98 203.90
  Q 831.99 211.82 830.99 221.70
  Q 829.64 235.17 837.47 245.79
  C 846.45 257.99 863.63 259.63 874.89 249.76
  Q 881.57 243.90 883.92 234.73
  Q 884.59 232.11 882.79 232.41"
/>
<path stroke="#041a28" vector-effect="non-scaling-stroke" d="
  M 554.93 200.82
  L 554.73 220.42
  A 4.16 4.16 0.0 0 0 558.84 224.63
  L 571.03 224.75
  A 15.47 13.21 0.6 0 0 586.64 211.71
  L 586.66 210.21
  A 15.47 13.21 0.6 0 0 571.33 196.84
  L 559.14 196.71
  A 4.16 4.16 0.0 0 0 554.93 200.82"
/>
<path stroke="#041a28" vector-effect="non-scaling-stroke" d="
  M 934.98 199.51
  L 934.80 220.41
  A 2.90 2.90 0.0 0 0 937.67 223.33
  L 952.90 223.47
  A 14.11 12.56 0.5 0 0 967.12 211.03
  L 967.14 209.45
  A 14.11 12.56 0.5 0 0 953.14 196.77
  L 937.91 196.64
  A 2.90 2.90 0.0 0 0 934.98 199.51"
/>
</g>
<path fill="#06304b" d="
  M 411.43 114.78
  L 353.80 149.22
  L 218.25 69.18
  A 1.15 1.13 -44.6 0 0 217.08 69.18
  L 80.02 151.15
  A 1.51 1.51 0.0 0 0 79.28 152.45
  L 79.28 302.52
  A 1.80 1.79 15.2 0 0 80.17 304.07
  L 218.46 383.91
  A 1.54 1.54 0.0 0 0 220.03 383.90
  L 353.27 305.09
  A 1.37 1.37 0.0 0 0 353.94 303.91
  L 353.84 208.71
  L 412.36 172.67
  L 412.34 178.27
  Q 411.41 179.22 411.40 180.13
  C 411.30 191.73 410.90 205.14 411.17 216.63
  Q 411.60 235.52 411.49 242.48
  Q 411.31 253.86 411.19 284.50
  C 411.13 303.00 411.21 316.24 410.88 334.06
  A 1.88 1.82 -30.7 0 1 410.65 334.91
  Q 409.41 337.14 407.33 337.69
  A 0.61 0.56 20.8 0 0 407.18 337.75
  L 402.45 340.41
  A 0.55 0.31 -61.0 0 0 402.37 340.46
  Q 401.19 341.43 399.79 342.72
  A 3.89 3.81 -79.3 0 1 398.93 343.32
  Q 393.76 345.95 391.72 347.25
  Q 388.85 349.08 384.87 352.51
  Q 383.51 353.68 381.57 354.84
  Q 308.93 398.13 226.08 447.80
  C 222.88 449.72 219.95 452.07 217.64 451.62
  A 2.17 2.08 64.7 0 1 216.96 451.36
  L 21.90 335.99
  A 1.50 1.48 -74.8 0 1 21.18 334.71
  L 21.18 118.75
  A 2.40 2.39 -15.6 0 1 22.34 116.70
  L 215.09 1.43
  A 1.74 1.12 -57.2 0 1 215.31 1.33
  Q 217.62 0.46 220.44 2.11
  Q 252.92 21.08 319.40 60.71
  Q 365.12 87.96 411.43 114.78
  Z"
/>
<path fill="#fa7817" d="
  M 412.36 172.67
  L 353.84 208.71
  L 353.80 149.22
  L 411.43 114.78
  Q 412.27 116.41 412.30 120.50
  Q 412.48 146.71 412.36 172.67
  Z"
/>
<path fill="#06304b" d="
  M 123.55 264.63
  Q 116.79 245.77 117.14 223.77
  Q 117.39 208.20 121.47 193.93
  Q 133.34 152.49 169.80 132.30
  Q 187.00 122.78 208.98 121.15
  Q 256.64 117.61 288.95 151.23
  Q 307.25 170.27 314.54 197.43
  C 323.14 229.53 318.00 267.52 296.46 293.93
  Q 270.22 326.13 228.98 330.83
  Q 212.16 332.75 194.65 328.81
  C 160.53 321.14 135.32 297.44 123.55 264.63
  Z
  M 217.2835 164.1223
  A 61.48 54.23 -90.5 0 0 163.5921 226.0732
  A 61.48 54.23 -90.5 0 0 218.3565 287.0777
  A 61.48 54.23 -90.5 0 0 272.0479 225.1268
  A 61.48 54.23 -90.5 0 0 217.2835 164.1223
  Z"
/>
<path fill="#010404" d="
  M 412.34 178.27
  L 412.40 334.59
  A 2.31 2.31 0.0 0 1 411.28 336.59
  L 384.87 352.51
  Q 388.85 349.08 391.72 347.25
  Q 393.76 345.95 398.93 343.32
  A 3.89 3.81 -79.3 0 0 399.79 342.72
  Q 401.19 341.43 402.37 340.46
  A 0.55 0.31 -61.0 0 1 402.45 340.41
  L 407.18 337.75
  A 0.61 0.56 20.8 0 1 407.33 337.69
  Q 409.41 337.14 410.65 334.91
  A 1.88 1.82 -30.7 0 0 410.88 334.06
  C 411.21 316.24 411.13 303.00 411.19 284.50
  Q 411.31 253.86 411.49 242.48
  Q 411.60 235.52 411.17 216.63
  C 410.90 205.14 411.30 191.73 411.40 180.13
  Q 411.41 179.22 412.34 178.27
  Z"
/>
<path fill="#06304b" d="
  M 502.96 187.16
  Q 511.42 194.87 516.83 203.58
  Q 518.33 206.00 518.62 207.24
  Q 519.09 209.30 519.95 211.12
  Q 520.82 212.98 521.51 216.99
  Q 523.23 227.04 521.27 236.71
  A 3.99 3.61 66.1 0 1 521.00 237.53
  Q 519.33 241.21 519.81 244.73
  C 512.23 263.32 493.11 273.26 473.70 271.49
  C 449.76 269.30 433.13 250.84 433.22 226.73
  C 433.25 218.61 434.74 209.60 438.81 202.47
  C 445.19 191.27 453.75 184.56 466.36 181.45
  Q 475.76 179.14 485.40 180.41
  Q 495.68 181.76 502.96 187.16
  Z
  M 477.3249 195.4724
  A 30.35 27.46 -92.2 0 0 451.0502 226.8541
  A 30.35 27.46 -92.2 0 0 479.6551 256.1276
  A 30.35 27.46 -92.2 0 0 505.9298 224.7459
  A 30.35 27.46 -92.2 0 0 477.3249 195.4724
  Z"
/>
<path fill="#010404" d="
  M 619.17 245.19
  Q 628.32 252.81 639.41 254.47
  C 644.22 255.19 650.06 254.67 654.19 251.88
  C 658.75 248.80 659.27 242.96 655.35 239.07
  Q 653.50 237.23 648.35 235.21
  Q 647.18 234.75 629.70 228.85
  Q 628.39 228.41 623.78 225.48
  Q 619.08 222.49 616.16 217.20
  Q 613.58 212.52 613.76 206.27
  Q 614.21 190.72 629.03 183.29
  Q 633.63 180.99 640.27 180.25
  Q 658.17 178.26 673.79 188.07
  A 1.86 1.86 0.0 0 1 674.45 190.52
  L 667.33 203.90
  A 1.13 1.12 33.6 0 1 665.63 204.24
  Q 654.56 195.19 640.72 197.18
  C 636.33 197.81 632.54 201.05 632.82 205.92
  C 633.13 211.15 640.11 213.53 644.02 214.98
  Q 644.31 215.09 657.35 219.20
  Q 662.51 220.83 669.15 226.11
  C 677.97 233.13 679.11 246.76 674.37 256.45
  C 670.75 263.84 662.90 268.87 655.07 270.47
  Q 633.58 274.87 614.49 263.78
  Q 612.45 262.60 610.77 260.85
  A 1.00 1.00 0.0 0 1 610.61 259.70
  L 618.24 245.37
  A 0.61 0.61 0.0 0 1 619.17 245.19
  Z
  M 666.25 201.91
  Q 667.08 201.50 668.24 199.51
  Q 670.77 195.18 672.27 191.48
  A 3.10 3.10 0.0 0 0 670.81 187.56
  Q 655.85 179.93 639.02 181.88
  C 632.26 182.67 625.27 185.70 620.91 190.96
  C 619.16 193.07 618.07 195.93 616.47 199.09
  A 2.40 2.40 0.0 0 0 616.20 200.11
  Q 616.15 201.00 615.68 205.13
  C 614.68 213.96 618.64 221.37 626.67 225.33
  Q 632.17 228.03 634.49 228.72
  Q 645.60 231.98 651.24 234.51
  C 654.94 236.17 658.57 238.69 659.40 242.58
  C 660.82 249.24 655.63 254.66 649.44 255.69
  Q 638.78 257.48 629.00 253.24
  C 626.35 252.08 623.22 249.67 621.05 248.43
  A 2.67 2.66 -61.0 0 0 617.37 249.49
  L 612.49 258.66
  A 2.13 2.13 0.0 0 0 613.20 261.45
  Q 621.00 266.61 631.69 269.09
  Q 635.02 269.86 639.43 269.87
  C 646.88 269.90 656.36 270.08 662.94 266.08
  C 668.65 262.61 672.51 259.27 674.49 252.98
  C 677.62 243.03 675.29 231.68 666.21 225.68
  C 658.25 220.42 648.19 218.23 640.33 215.15
  C 632.80 212.20 628.00 205.91 634.00 198.38
  A 2.96 2.90 -82.8 0 1 635.05 197.55
  C 643.52 193.52 652.99 194.94 661.15 199.18
  C 662.76 200.02 663.67 201.23 665.42 201.94
  A 0.98 0.97 -46.8 0 0 666.25 201.91
  Z"
/>
<path fill="#06304b" d="
  M 856.13 180.03
  C 885.19 179.00 905.46 203.01 902.52 231.07
  Q 899.88 256.23 877.96 267.38
  Q 870.23 271.32 859.40 271.71
  Q 848.58 272.09 840.58 268.72
  Q 817.93 259.16 813.50 234.25
  C 808.56 206.47 827.07 181.07 856.13 180.03
  Z
  M 882.79 232.41
  L 882.93 231.09
  Q 885.21 228.43 884.94 226.75
  Q 884.18 222.03 883.36 216.83
  C 882.43 210.87 879.53 207.32 874.95 202.93
  C 871.29 199.42 868.43 197.10 863.52 196.07
  C 854.63 194.20 845.00 197.08 838.98 203.90
  Q 831.99 211.82 830.99 221.70
  Q 829.64 235.17 837.47 245.79
  C 846.45 257.99 863.63 259.63 874.89 249.76
  Q 881.57 243.90 883.92 234.73
  Q 884.59 232.11 882.79 232.41
  Z"
/>
<path fill="#010404" d="
  M 555.89 269.83
  Q 555.26 259.60 555.00 249.40
  C 554.92 246.35 555.63 243.80 555.39 241.07
  A 1.30 1.28 72.2 0 1 556.00 239.87
  Q 557.50 238.95 558.70 238.79
  Q 560.70 238.53 572.06 238.21
  Q 581.66 237.95 585.30 236.82
  Q 595.32 233.73 600.66 223.43
  Q 601.79 221.24 602.11 218.47
  Q 602.78 212.68 602.90 209.09
  A 8.41 8.29 -50.7 0 0 602.70 206.94
  C 601.99 203.82 601.68 200.70 600.26 198.18
  C 596.97 192.35 592.68 187.58 586.22 185.37
  Q 580.05 183.26 574.73 183.11
  Q 568.97 182.96 539.80 183.05
  A 1.32 1.31 -88.1 0 0 538.50 184.27
  Q 537.95 191.86 538.37 200.57
  C 538.60 205.10 538.48 212.49 538.41 218.26
  C 538.24 233.11 538.43 247.73 537.12 262.56
  L 537.02 182.46
  A 0.88 0.87 -90.0 0 1 537.89 181.58
  Q 559.08 181.43 572.25 181.58
  C 586.07 181.74 598.40 187.49 602.65 201.06
  Q 605.97 211.65 602.31 221.90
  C 597.96 234.08 585.86 239.63 572.85 239.91
  Q 563.27 240.10 556.69 239.96
  A 0.62 0.62 0.0 0 0 556.06 240.58
  L 555.89 269.83
  Z"
/>
<path fill="#06304b" d="
  M 665.42 201.94
  C 663.67 201.23 662.76 200.02 661.15 199.18
  C 652.99 194.94 643.52 193.52 635.05 197.55
  A 2.96 2.90 -82.8 0 0 634.00 198.38
  C 628.00 205.91 632.80 212.20 640.33 215.15
  C 648.19 218.23 658.25 220.42 666.21 225.68
  C 675.29 231.68 677.62 243.03 674.49 252.98
  C 672.51 259.27 668.65 262.61 662.94 266.08
  C 656.36 270.08 646.88 269.90 639.43 269.87
  Q 635.02 269.86 631.69 269.09
  Q 621.00 266.61 613.20 261.45
  A 2.13 2.13 0.0 0 1 612.49 258.66
  L 617.37 249.49
  A 2.67 2.66 -61.0 0 1 621.05 248.43
  C 623.22 249.67 626.35 252.08 629.00 253.24
  Q 638.78 257.48 649.44 255.69
  C 655.63 254.66 660.82 249.24 659.40 242.58
  C 658.57 238.69 654.94 236.17 651.24 234.51
  Q 645.60 231.98 634.49 228.72
  Q 632.17 228.03 626.67 225.33
  C 618.64 221.37 614.68 213.96 615.68 205.13
  Q 616.15 201.00 616.20 200.11
  A 2.40 2.40 0.0 0 1 616.47 199.09
  C 618.07 195.93 619.16 193.07 620.91 190.96
  C 625.27 185.70 632.26 182.67 639.02 181.88
  Q 655.85 179.93 670.81 187.56
  A 3.10 3.10 0.0 0 1 672.27 191.48
  Q 670.77 195.18 668.24 199.51
  Q 667.08 201.50 666.25 201.91
  A 0.98 0.97 -46.8 0 1 665.42 201.94
  Z"
/>
<path fill="#010404" d="
  M 718.53 242.04
  L 717.76 242.58
  A 0.72 0.71 -23.8 0 1 716.65 242.15
  L 714.23 231.26
  A 5.21 3.28 88.3 0 0 714.04 230.58
  L 713.20 228.21
  A 1.11 0.89 40.9 0 1 713.17 228.07
  Q 712.49 223.82 711.39 221.66
  A 1.96 1.83 32.8 0 1 711.17 220.78
  Q 711.14 218.44 708.75 210.70
  Q 707.42 206.40 706.21 200.66
  Q 704.50 192.63 702.32 185.43
  Q 701.67 183.29 699.63 183.17
  Q 691.22 182.68 683.03 183.69
  Q 682.43 182.77 682.68 182.17
  Q 682.93 181.61 684.00 181.60
  Q 694.22 181.53 702.21 181.64
  A 0.73 0.71 83.0 0 1 702.89 182.18
  Q 710.37 211.13 718.13 241.97
  Q 718.18 242.18 718.53 242.04
  Z"
/>
<path fill="#010404" d="
  M 745.60 210.44
  Q 748.40 215.41 749.91 221.14
  Q 750.09 221.81 751.18 225.37
  Q 751.98 227.99 752.29 229.66
  Q 752.91 232.96 761.18 259.30
  Q 762.43 263.26 763.14 266.96
  A 1.34 1.34 0.0 0 0 764.39 268.04
  L 779.65 268.79
  A 1.85 1.85 0.0 0 0 781.52 267.43
  L 804.33 185.33
  A 1.71 1.71 0.0 0 0 802.68 183.16
  L 789.91 183.16
  A 2.45 2.44 -82.8 0 0 787.54 185.01
  L 780.79 211.85
  A 0.88 0.08 -84.8 0 0 780.77 211.96
  C 780.50 214.62 780.46 215.72 779.84 218.08
  Q 777.88 225.52 776.03 235.58
  Q 775.12 240.55 772.03 244.22
  A 0.51 0.51 0.0 0 1 771.17 244.10
  C 770.18 241.85 769.10 239.08 768.43 236.64
  Q 761.36 210.57 761.07 209.48
  Q 759.24 202.42 757.06 195.52
  Q 755.12 189.37 753.96 184.54
  A 1.95 1.94 83.2 0 0 752.07 183.05
  L 738.28 183.05
  A 2.57 2.57 0.0 0 0 735.74 185.24
  C 735.04 190.00 733.19 194.13 731.90 199.07
  C 730.39 204.80 729.45 207.56 728.29 212.36
  Q 726.23 220.91 721.15 238.14
  Q 720.63 239.92 719.46 242.09
  A 0.33 0.32 34.5 0 1 718.96 242.18
  Q 718.72 241.98 718.53 242.04
  L 735.08 182.60
  A 1.52 1.52 0.0 0 1 736.54 181.49
  L 753.91 181.49
  A 0.86 0.85 83.6 0 1 754.74 182.16
  Q 755.72 186.39 771.70 242.60
  Q 771.78 242.91 771.88 242.95
  A 0.29 0.28 11.7 0 0 772.21 242.74
  L 786.35 182.68
  A 1.48 1.47 6.7 0 1 787.79 181.55
  L 806.23 181.55
  A 0.43 0.43 0.0 0 1 806.64 182.09
  L 782.56 268.79
  A 1.42 1.42 0.0 0 1 781.19 269.83
  L 762.82 269.83
  A 0.71 0.69 81.6 0 1 762.15 269.32
  L 745.60 210.44
  Z"
/>
<path fill="#010404" d="
  M 969.00 234.48
  Q 968.79 234.02 968.89 233.69
  Q 968.98 233.40 969.50 233.18
  Q 978.09 229.54 981.65 221.15
  C 983.61 216.55 983.56 210.22 983.09 205.36
  C 982.48 199.11 979.10 192.15 973.45 188.49
  Q 965.31 183.23 955.99 183.07
  Q 946.24 182.91 920.67 183.07
  A 1.92 1.91 -4.3 0 0 918.79 185.25
  Q 919.32 189.07 919.35 192.51
  Q 919.62 236.20 918.89 267.22
  A 1.16 1.16 0.0 0 0 920.05 268.41
  L 933.31 268.41
  A 1.71 1.71 0.0 0 0 935.02 266.70
  L 935.02 238.16
  A 1.52 1.52 0.0 0 1 936.58 236.64
  L 944.79 236.80
  A 0.76 0.54 -40.5 0 0 945.02 236.78
  Q 948.55 236.09 951.02 236.55
  A 2.16 2.12 -9.4 0 1 952.49 237.58
  C 953.63 239.54 954.35 241.96 955.47 244.13
  Q 962.17 257.15 969.31 269.80
  Q 967.35 270.34 966.60 268.94
  Q 958.03 252.80 951.45 238.80
  A 1.62 1.60 77.1 0 0 950.00 237.88
  L 936.82 237.88
  A 0.56 0.56 0.0 0 0 936.26 238.44
  L 936.26 269.34
  A 0.52 0.52 0.0 0 1 935.74 269.86
  L 918.56 269.86
  A 0.79 0.79 0.0 0 1 917.77 269.07
  L 917.77 182.24
  A 0.65 0.65 0.0 0 1 918.41 181.59
  Q 939.91 181.34 955.98 181.67
  Q 963.61 181.83 970.95 185.51
  C 982.93 191.51 987.04 205.74 983.91 218.18
  Q 980.98 229.84 969.00 234.48
  Z"
/>
<path fill="#010404" d="
  M 1040.48 198.76
  Q 1039.51 198.00 1038.67 197.86
  A 0.25 0.25 0.0 0 1 1038.71 197.36
  Q 1048.27 197.09 1059.73 197.45
  C 1061.69 197.51 1063.13 197.32 1063.07 195.06
  Q 1062.99 192.23 1063.20 184.64
  A 1.46 1.45 0.9 0 0 1061.74 183.14
  L 995.63 183.14
  A 1.73 1.73 0.0 0 0 993.90 184.87
  L 993.90 195.60
  A 1.73 1.73 0.0 0 0 995.63 197.33
  L 1019.49 197.33
  A 1.09 1.08 84.1 0 1 1020.55 198.20
  Q 1021.37 202.10 1021.39 207.25
  Q 1021.46 229.20 1021.37 266.96
  A 1.69 1.69 0.0 0 0 1023.06 268.65
  L 1035.56 268.65
  A 1.33 1.33 0.0 0 0 1036.89 267.32
  L 1036.89 200.30
  A 2.37 2.32 -29.3 0 1 1037.26 199.04
  Q 1037.94 198.00 1038.33 198.78
  L 1038.41 268.70
  A 1.15 1.15 0.0 0 1 1037.26 269.85
  L 1020.42 269.85
  A 0.48 0.47 0.0 0 1 1019.94 269.38
  L 1019.94 199.33
  A 0.54 0.54 0.0 0 0 1019.40 198.79
  L 993.43 198.79
  A 0.71 0.70 0.0 0 1 992.72 198.09
  L 992.72 182.29
  A 0.76 0.76 0.0 0 1 993.48 181.53
  L 1063.72 181.53
  A 0.70 0.69 90.0 0 1 1064.41 182.23
  L 1064.41 197.77
  A 1.09 1.09 0.0 0 1 1063.32 198.86
  L 1040.48 198.76
  Z"
/>
<path fill="#010404" d="
  M 1094.03 216.53
  L 1129.81 216.93
  A 0.32 0.32 0.0 0 0 1130.12 216.52
  Q 1129.83 215.53 1129.59 216.27
  L 1129.62 182.54
  A 1.01 1.01 0.0 0 1 1130.63 181.53
  L 1146.91 181.53
  A 1.07 1.06 -90.0 0 1 1147.97 182.60
  L 1147.97 269.16
  A 0.70 0.69 -90.0 0 1 1147.28 269.86
  L 1130.10 269.86
  A 0.53 0.52 90.0 0 1 1129.58 269.33
  L 1129.58 233.78
  A 0.78 0.77 0.4 0 0 1128.81 233.01
  L 1094.03 232.95
  Q 1094.09 231.50 1095.25 231.48
  Q 1113.81 231.19 1129.19 231.57
  A 1.86 1.86 0.0 0 1 1131.01 233.43
  L 1131.01 266.52
  A 2.01 2.01 0.0 0 0 1133.02 268.53
  L 1145.14 268.53
  A 1.79 1.79 0.0 0 0 1146.92 266.51
  C 1146.34 261.99 1147.09 257.44 1147.06 253.46
  Q 1146.96 240.23 1146.79 228.09
  C 1146.57 213.10 1146.86 202.56 1146.68 189.63
  Q 1146.67 189.18 1146.86 184.98
  Q 1146.95 182.85 1144.56 182.93
  Q 1138.71 183.11 1132.56 183.09
  A 1.59 1.59 0.0 0 0 1130.97 184.68
  L 1130.97 217.29
  A 0.57 0.57 0.0 0 1 1130.40 217.86
  L 1095.51 217.86
  A 2.93 2.92 0.0 0 1 1092.58 214.94
  L 1092.58 185.09
  A 2.03 2.03 0.0 0 0 1090.55 183.06
  L 1078.64 183.06
  A 1.40 1.40 0.0 0 0 1077.24 184.46
  L 1077.24 267.21
  A 1.38 1.38 0.0 0 0 1078.62 268.59
  L 1091.37 268.59
  A 1.26 1.25 0.0 0 0 1092.63 267.34
  L 1092.63 237.98
  A 2.90 2.84 -28.9 0 1 1093.10 236.41
  Q 1093.69 235.51 1093.95 234.17
  L 1094.04 269.23
  A 0.63 0.63 0.0 0 1 1093.41 269.86
  L 1076.17 269.86
  A 0.63 0.63 0.0 0 1 1075.54 269.23
  L 1075.54 182.19
  A 0.67 0.66 -90.0 0 1 1076.20 181.52
  L 1093.32 181.52
  A 0.69 0.68 90.0 0 1 1094.00 182.21
  L 1094.03 216.53
  Z"
/>
<path fill="#06304b" d="
  M 745.60 210.44
  Q 745.54 210.46 745.48 210.47
  Q 745.60 210.00 745.33 209.71
  Q 745.26 209.64 744.60 209.67
  L 729.21 265.57
  A 2.39 1.89 -58.3 0 0 729.15 265.89
  Q 728.91 267.70 728.42 269.18
  A 0.94 0.93 9.0 0 1 727.53 269.82
  L 710.56 269.75
  L 708.24 266.50
  A 2.09 2.06 -66.9 0 1 707.88 265.59
  C 707.20 260.86 705.51 256.34 704.38 252.04
  Q 703.23 247.68 700.77 240.13
  C 698.13 232.02 696.21 224.14 693.32 214.69
  Q 692.43 211.79 687.48 193.77
  Q 686.81 191.34 685.54 187.89
  A 0.72 0.69 -1.2 0 0 685.05 187.44
  Q 684.71 187.34 684.68 187.09
  Q 684.63 186.65 684.44 186.48
  Q 684.21 186.28 683.81 186.46
  L 683.03 183.69
  Q 691.22 182.68 699.63 183.17
  Q 701.67 183.29 702.32 185.43
  Q 704.50 192.63 706.21 200.66
  Q 707.42 206.40 708.75 210.70
  Q 711.14 218.44 711.17 220.78
  A 1.96 1.83 32.8 0 0 711.39 221.66
  Q 712.49 223.82 713.17 228.07
  A 1.11 0.89 40.9 0 0 713.20 228.21
  L 714.04 230.58
  A 5.21 3.28 88.3 0 1 714.23 231.26
  L 716.65 242.15
  A 0.72 0.71 -23.8 0 0 717.76 242.58
  L 718.53 242.04
  Q 718.72 241.98 718.96 242.18
  A 0.33 0.32 34.5 0 0 719.46 242.09
  Q 720.63 239.92 721.15 238.14
  Q 726.23 220.91 728.29 212.36
  C 729.45 207.56 730.39 204.80 731.90 199.07
  C 733.19 194.13 735.04 190.00 735.74 185.24
  A 2.57 2.57 0.0 0 1 738.28 183.05
  L 752.07 183.05
  A 1.95 1.94 83.2 0 1 753.96 184.54
  Q 755.12 189.37 757.06 195.52
  Q 759.24 202.42 761.07 209.48
  Q 761.36 210.57 768.43 236.64
  C 769.10 239.08 770.18 241.85 771.17 244.10
  A 0.51 0.51 0.0 0 0 772.03 244.22
  Q 775.12 240.55 776.03 235.58
  Q 777.88 225.52 779.84 218.08
  C 780.46 215.72 780.50 214.62 780.77 211.96
  A 0.88 0.08 -84.8 0 1 780.79 211.85
  L 787.54 185.01
  A 2.45 2.44 -82.8 0 1 789.91 183.16
  L 802.68 183.16
  A 1.71 1.71 0.0 0 1 804.33 185.33
  L 781.52 267.43
  A 1.85 1.85 0.0 0 1 779.65 268.79
  L 764.39 268.04
  A 1.34 1.34 0.0 0 1 763.14 266.96
  Q 762.43 263.26 761.18 259.30
  Q 752.91 232.96 752.29 229.66
  Q 751.98 227.99 751.18 225.37
  Q 750.09 221.81 749.91 221.14
  Q 748.40 215.41 745.60 210.44
  Z"
/>
<path fill="#06304b" d="
  M 555.89 269.83
  L 537.78 269.76
  A 0.54 0.54 0.0 0 1 537.24 269.23
  L 537.12 262.56
  C 538.43 247.73 538.24 233.11 538.41 218.26
  C 538.48 212.49 538.60 205.10 538.37 200.57
  Q 537.95 191.86 538.50 184.27
  A 1.32 1.31 -88.1 0 1 539.80 183.05
  Q 568.97 182.96 574.73 183.11
  Q 580.05 183.26 586.22 185.37
  C 592.68 187.58 596.97 192.35 600.26 198.18
  C 601.68 200.70 601.99 203.82 602.70 206.94
  A 8.41 8.29 -50.7 0 1 602.90 209.09
  Q 602.78 212.68 602.11 218.47
  Q 601.79 221.24 600.66 223.43
  Q 595.32 233.73 585.30 236.82
  Q 581.66 237.95 572.06 238.21
  Q 560.70 238.53 558.70 238.79
  Q 557.50 238.95 556.00 239.87
  A 1.30 1.28 72.2 0 0 555.39 241.07
  C 555.63 243.80 554.92 246.35 555.00 249.40
  Q 555.26 259.60 555.89 269.83
  Z
  M 554.93 200.82
  L 554.73 220.42
  A 4.16 4.16 0.0 0 0 558.84 224.63
  L 571.03 224.75
  A 15.47 13.21 0.6 0 0 586.64 211.71
  L 586.66 210.21
  A 15.47 13.21 0.6 0 0 571.33 196.84
  L 559.14 196.71
  A 4.16 4.16 0.0 0 0 554.93 200.82
  Z"
/>
<path fill="#06304b" d="
  M 969.00 234.48
  Q 968.25 236.59 968.76 237.50
  Q 976.25 251.06 983.77 264.60
  C 984.81 266.48 986.21 267.30 985.42 269.83
  L 969.31 269.80
  Q 962.17 257.15 955.47 244.13
  C 954.35 241.96 953.63 239.54 952.49 237.58
  A 2.16 2.12 -9.4 0 0 951.02 236.55
  Q 948.55 236.09 945.02 236.78
  A 0.76 0.54 -40.5 0 1 944.79 236.80
  L 936.58 236.64
  A 1.52 1.52 0.0 0 0 935.02 238.16
  L 935.02 266.70
  A 1.71 1.71 0.0 0 1 933.31 268.41
  L 920.05 268.41
  A 1.16 1.16 0.0 0 1 918.89 267.22
  Q 919.62 236.20 919.35 192.51
  Q 919.32 189.07 918.79 185.25
  A 1.92 1.91 -4.3 0 1 920.67 183.07
  Q 946.24 182.91 955.99 183.07
  Q 965.31 183.23 973.45 188.49
  C 979.10 192.15 982.48 199.11 983.09 205.36
  C 983.56 210.22 983.61 216.55 981.65 221.15
  Q 978.09 229.54 969.50 233.18
  Q 968.98 233.40 968.89 233.69
  Q 968.79 234.02 969.00 234.48
  Z
  M 934.98 199.51
  L 934.80 220.41
  A 2.90 2.90 0.0 0 0 937.67 223.33
  L 952.90 223.47
  A 14.11 12.56 0.5 0 0 967.12 211.03
  L 967.14 209.45
  A 14.11 12.56 0.5 0 0 953.14 196.77
  L 937.91 196.64
  A 2.90 2.90 0.0 0 0 934.98 199.51
  Z"
/>
<path fill="#06304b" d="
  M 1040.48 198.76
  L 1038.33 198.78
  Q 1037.94 198.00 1037.26 199.04
  A 2.37 2.32 -29.3 0 0 1036.89 200.30
  L 1036.89 267.32
  A 1.33 1.33 0.0 0 1 1035.56 268.65
  L 1023.06 268.65
  A 1.69 1.69 0.0 0 1 1021.37 266.96
  Q 1021.46 229.20 1021.39 207.25
  Q 1021.37 202.10 1020.55 198.20
  A 1.09 1.08 84.1 0 0 1019.49 197.33
  L 995.63 197.33
  A 1.73 1.73 0.0 0 1 993.90 195.60
  L 993.90 184.87
  A 1.73 1.73 0.0 0 1 995.63 183.14
  L 1061.74 183.14
  A 1.46 1.45 0.9 0 1 1063.20 184.64
  Q 1062.99 192.23 1063.07 195.06
  C 1063.13 197.32 1061.69 197.51 1059.73 197.45
  Q 1048.27 197.09 1038.71 197.36
  A 0.25 0.25 0.0 0 0 1038.67 197.86
  Q 1039.51 198.00 1040.48 198.76
  Z"
/>
<path fill="#06304b" d="
  M 1094.03 232.95
  L 1093.95 234.17
  Q 1093.69 235.51 1093.10 236.41
  A 2.90 2.84 -28.9 0 0 1092.63 237.98
  L 1092.63 267.34
  A 1.26 1.25 -0.0 0 1 1091.37 268.59
  L 1078.62 268.59
  A 1.38 1.38 0.0 0 1 1077.24 267.21
  L 1077.24 184.46
  A 1.40 1.40 0.0 0 1 1078.64 183.06
  L 1090.55 183.06
  A 2.03 2.03 0.0 0 1 1092.58 185.09
  L 1092.58 214.94
  A 2.93 2.92 -0.0 0 0 1095.51 217.86
  L 1130.40 217.86
  A 0.57 0.57 0.0 0 0 1130.97 217.29
  L 1130.97 184.68
  A 1.59 1.59 0.0 0 1 1132.56 183.09
  Q 1138.71 183.11 1144.56 182.93
  Q 1146.95 182.85 1146.86 184.98
  Q 1146.67 189.18 1146.68 189.63
  C 1146.86 202.56 1146.57 213.10 1146.79 228.09
  Q 1146.96 240.23 1147.06 253.46
  C 1147.09 257.44 1146.34 261.99 1146.92 266.51
  A 1.79 1.79 0.0 0 1 1145.14 268.53
  L 1133.02 268.53
  A 2.01 2.01 0.0 0 1 1131.01 266.52
  L 1131.01 233.43
  A 1.86 1.86 0.0 0 0 1129.19 231.57
  Q 1113.81 231.19 1095.25 231.48
  Q 1094.09 231.50 1094.03 232.95
  Z"
/>
<path fill="#010404" d="
  M 710.56 269.75
  Q 708.42 270.11 707.73 269.48
  A 0.36 0.32 -81.0 0 1 707.61 269.29
  L 683.81 186.46
  Q 684.21 186.28 684.44 186.48
  Q 684.63 186.65 684.68 187.09
  Q 684.71 187.34 685.05 187.44
  A 0.72 0.69 -1.2 0 1 685.54 187.89
  Q 686.81 191.34 687.48 193.77
  Q 692.43 211.79 693.32 214.69
  C 696.21 224.14 698.13 232.02 700.77 240.13
  Q 703.23 247.68 704.38 252.04
  C 705.51 256.34 707.20 260.86 707.88 265.59
  A 2.09 2.06 -66.9 0 0 708.24 266.50
  L 710.56 269.75
  Z"
/>
<path fill="#010404" d="
  M 502.96 187.16
  Q 512.57 192.79 517.55 202.42
  Q 528.13 222.90 519.81 244.73
  Q 519.33 241.21 521.00 237.53
  A 3.99 3.61 66.1 0 0 521.27 236.71
  Q 523.23 227.04 521.51 216.99
  Q 520.82 212.98 519.95 211.12
  Q 519.09 209.30 518.62 207.24
  Q 518.33 206.00 516.83 203.58
  Q 511.42 194.87 502.96 187.16
  Z"
/>
<path fill="#010404" d="
  M 477.3249 195.4724
  A 30.35 27.46 -92.2 0 1 505.9298 224.7459
  A 30.35 27.46 -92.2 0 1 479.6551 256.1276
  A 30.35 27.46 -92.2 0 1 451.0502 226.8541
  A 30.35 27.46 -92.2 0 1 477.3249 195.4724
  Z
  M 477.6235 197.0699
  A 28.90 25.99 -91.5 0 0 452.3989 226.6403
  A 28.90 25.99 -91.5 0 0 479.1365 254.8501
  A 28.90 25.99 -91.5 0 0 504.3611 225.2797
  A 28.90 25.99 -91.5 0 0 477.6235 197.0699
  Z"
/>
<path fill="#010404" d="
  M 882.93 231.09
  C 885.23 213.98 875.29 196.38 856.28 197.29
  C 845.83 197.78 837.01 205.07 834.01 214.80
  Q 830.19 227.16 834.75 238.49
  C 840.34 252.40 855.53 258.54 868.81 252.05
  C 876.54 248.27 881.35 240.88 882.79 232.41
  Q 884.59 232.11 883.92 234.73
  Q 881.57 243.90 874.89 249.76
  C 863.63 259.63 846.45 257.99 837.47 245.79
  Q 829.64 235.17 830.99 221.70
  Q 831.99 211.82 838.98 203.90
  C 845.00 197.08 854.63 194.20 863.52 196.07
  C 868.43 197.10 871.29 199.42 874.95 202.93
  C 879.53 207.32 882.43 210.87 883.36 216.83
  Q 884.18 222.03 884.94 226.75
  Q 885.21 228.43 882.93 231.09
  Z"
/>
<path fill="#010404" d="
  M 934.98 199.51
  A 2.90 2.90 0.0 0 1 937.91 196.64
  L 953.14 196.77
  A 14.11 12.56 0.5 0 1 967.14 209.45
  L 967.12 211.03
  A 14.11 12.56 0.5 0 1 952.90 223.47
  L 937.67 223.33
  A 2.90 2.90 0.0 0 1 934.80 220.41
  L 934.98 199.51
  Z
  M 936.21 198.37
  L 936.29 221.79
  A 0.24 0.24 0.0 0 0 936.53 222.03
  L 952.72 221.97
  A 13.25 11.11 -0.2 0 0 965.93 210.82
  L 965.93 209.14
  A 13.25 11.11 -0.2 0 0 952.64 198.07
  L 936.45 198.13
  A 0.24 0.24 0.0 0 0 936.21 198.37
  Z"
/>
<path fill="#010404" d="
  M 554.93 200.82
  A 4.16 4.16 0.0 0 1 559.14 196.71
  L 571.33 196.84
  A 15.47 13.21 0.6 0 1 586.66 210.21
  L 586.64 211.71
  A 15.47 13.21 0.6 0 1 571.03 224.75
  L 558.84 224.63
  A 4.16 4.16 0.0 0 1 554.73 220.42
  L 554.93 200.82
  Z
  M 556.02 198.77
  L 556.06 222.73
  A 0.37 0.37 0.0 0 0 556.43 223.09
  L 572.03 223.07
  A 13.01 11.43 -0.1 0 0 585.02 211.61
  L 585.02 209.77
  A 13.01 11.43 -0.1 0 0 571.99 198.37
  L 556.39 198.39
  A 0.37 0.37 0.0 0 0 556.02 198.77
  Z"
/>
<path fill="#010404" d="
  M 745.48 210.47
  Q 745.27 209.77 744.60 209.67
  Q 745.26 209.64 745.33 209.71
  Q 745.60 210.00 745.48 210.47
  Z"
/>
<path fill="#06304b" d="
  M 1129.59 216.27
  Q 1129.83 215.53 1130.12 216.52
  A 0.32 0.32 0.0 0 1 1129.81 216.93
  L 1094.03 216.53
  L 1129.59 216.27
  Z"
/>
<path fill="#010404" d="
  M 969.00 234.48
  Q 968.95 234.63 968.92 234.80
  A 1.12 1.06 37.4 0 0 969.04 235.55
  L 987.71 269.11
  A 0.47 0.46 65.7 0 1 987.46 269.78
  Q 986.63 270.07 985.42 269.83
  C 986.21 267.30 984.81 266.48 983.77 264.60
  Q 976.25 251.06 968.76 237.50
  Q 968.25 236.59 969.00 234.48
  Z"
/>
</svg>
