<?xml version="1.0" encoding="UTF-8" standalone="no"?>
<!DOCTYPE svg PUBLIC "-//W3C//DTD SVG 1.1//EN" "http://www.w3.org/Graphics/SVG/1.1/DTD/svg11.dtd">
<svg xmlns="http://www.w3.org/2000/svg" version="1.1" viewBox="0.00 0.00 400.00 455.00">
<g stroke-width="2.00" fill="none" stroke-linecap="butt">
<path stroke="#805431" vector-effect="non-scaling-stroke" d="
  M 394.43 114.79
  L 336.80 149.22"
/>
<path stroke="#805431" vector-effect="non-scaling-stroke" d="
  M 336.84 208.70
  L 395.36 172.68"
/>
</g>
<path fill="#06304a" d="
  M 394.43 114.79
  L 336.80 149.22
  L 201.24 69.17
  A 1.20 1.18 44.6 0 0 200.01 69.17
  L 62.96 151.23
  A 1.41 1.41 0.0 0 0 62.27 152.44
  L 62.27 303.12
  A 0.76 0.74 15.4 0 0 62.65 303.77
  L 201.44 383.90
  A 1.44 1.43 44.5 0 0 202.89 383.89
  L 336.20 305.12
  A 1.51 1.51 0.0 0 0 336.94 303.82
  L 336.84 208.70
  L 395.36 172.68
  L 395.39 334.35
  A 2.88 2.86 -15.7 0 1 394.01 336.80
  Q 354.15 361.09 315.26 384.29
  Q 260.76 416.79 205.53 450.05
  Q 202.92 451.62 201.57 451.74
  A 2.54 2.52 -32.7 0 1 200.11 451.43
  Q 197.27 449.85 195.33 448.69
  Q 32.26 352.01 8.52 338.24
  Q 6.22 336.90 4.72 335.38
  A 1.97 1.92 23.5 0 1 4.17 334.03
  L 4.17 118.90
  A 2.64 2.63 70.8 0 1 5.16 116.84
  Q 5.81 116.33 6.92 115.67
  C 69.95 78.25 132.93 40.41 195.00 3.24
  Q 197.95 1.48 199.35 1.15
  Q 201.33 0.68 203.92 2.22
  Q 270.62 41.79 299.57 59.04
  Q 346.62 87.07 394.43 114.79
  Z"
/>
<path fill="#fa7817" d="
  M 394.43 114.79
  Q 395.32 117.20 395.35 122.50
  Q 395.49 147.72 395.36 172.68
  L 336.84 208.70
  L 336.80 149.22
  L 394.43 114.79
  Z"
/>
<path fill="#06304a" d="
  M 177.86 328.86
  C 136.56 319.70 108.37 286.66 101.59 245.13
  Q 98.37 225.36 102.05 204.71
  Q 104.41 191.46 109.38 179.87
  C 119.63 155.99 139.74 136.31 163.73 127.34
  Q 191.08 117.10 220.85 122.74
  C 261.35 130.40 292.27 165.14 299.49 206.10
  Q 303.65 229.73 298.96 252.00
  C 287.22 307.84 233.52 341.20 177.86 328.86
  Z
  M 200.1862 164.1234
  A 61.48 54.23 -90.6 0 0 146.6030 226.1679
  A 61.48 54.23 -90.6 0 0 201.4738 287.0766
  A 61.48 54.23 -90.6 0 0 255.0570 225.0321
  A 61.48 54.23 -90.6 0 0 200.1862 164.1234
  Z"
/>
</svg>
